{"title":"Pornochic # 22 - Femmes Fatales","uid":7097090,"size":934573594,"categoryP":"porn","categoryS":"movies","magnet":"?xt=urn:btih:47ba1bf4f2d8a79c38e2c39114af39e7258ec56e&amp;dn=Pornochic+%23+22+-+Femmes+Fatales&amp;tr=udp%3A%2F%2Ftracker.openbittorrent.com%3A80&amp;tr=udp%3A%2F%2Fopen.demonii.com%3A1337&amp;tr=udp%3A%2F%2Ftracker.coppersurfer.tk%3A6969&amp;tr=udp%3A%2F%2Fexodus.desync.com%3A6969","seeders":1,"leechers":1,"uploader":"tigris1968","files":9,"time":1331588906,"description":"Pornochic # 22 - Femmes Fatales DVD\n\nMarc Dorcel\n\nCategory Feature, Foreign, Marc Dorcel's Pornochic Series \n\nStarring Aletta Ocean, Jade Laroche, Melissa Lauren, James Brossman, Chloe, J.P.X., Yasmine, Ian Scott, Alex, Cindy Dollar, Leny Ewil, Kristine Crystalis, Claire Castel, Luciano\n\nParis, city of lights, city of love and beauty, city to meet the most beautiful women, willing to give themselves fully to reach the peaks of pleasure. These Femme Fatales in their chic &amp; sexy lingerie don't just wait for orgasms, they grab their partners cock, stroke it until rock hard and slam it up their asses. Lovers, escorts, models, wives, they all have sex in couples or groups with the same eagerness to conquer their quest for anal and double penetrationÂ… their quest of unrestrained lust. \n\nStudio Marc Dorcel \n\nDiscs 1 \n\nRelease Date Jan 19, 2012\n &lt;a href=&quot;\nhttp://bayimg.com/CaNofaAdd&quot; rel=&quot;nofollow&quot; target=&quot;_NEW&quot;&gt;\nhttp://bayimg.com/CaNofaAdd&lt;/a&gt;\n &lt;a href=&quot;\nhttp://bayimg.com/CanoIaaDd&quot; rel=&quot;nofollow&quot; target=&quot;_NEW&quot;&gt;\nhttp://bayimg.com/CanoIaaDd&lt;/a&gt;\n &lt;a href=&quot;\nhttp://bayimg.com/canolaaDD&quot; rel=&quot;nofollow&quot; target=&quot;_NEW&quot;&gt;\nhttp://bayimg.com/canolaaDD&lt;/a&gt;\n\nGeneral\nComplete name                    : C:DownloadsPornochic # 22 - Femmes FatalesdvdPornochic # 22 - Femmes Fatales.avi\nFormat                           : AVI\nFormat/Info                      : Audio Video Interleave\nFile size                        : 889 MiB\nDuration                         : 1h 33mn\nOverall bit rate                 : 1 334 Kbps\nWriting application              : MEncoder SVN-r30881(20100311-gcc4.3.3)\nWriting library                  : MPlayer\n\nVideo\nID                               : 0\nFormat                           : MPEG-4 Visual\nFormat profile                   : Advanced Simple@L5\nFormat settings, BVOP            : 2\nFormat settings, QPel            : No\nFormat settings, GMC             : No warppoints\nFormat settings, Matrix          : Default (H.263)\nCodec ID                         : XVID\nCodec ID/Hint                    : XviD\nDuration                         : 1h 33mn\nBit rate                         : 1 194 Kbps\nWidth                            : 720 pixels\nHeight                           : 480 pixels\nDisplay aspect ratio             : 3:2\nFrame rate                       : 25.000 fps\nStandard                         : NTSC\nColor space                      : YUV\nChroma subsampling               : 4:2:0\nBit depth                        : 8 bits\nScan type                        : Progressive\nCompression mode                 : Lossy\nBits/(Pixel*Frame)               : 0.138\nStream size                      : 796 MiB (89%)\nWriting library                  : XviD 1.2.1 (UTC 2008-12-04)\n\nAudio\nID                               : 1\nFormat                           : MPEG Audio\nFormat version                   : Version 1\nFormat profile                   : Layer 3\nMode                             : Joint stereo\nCodec ID                         : 55\nCodec ID/Hint                    : MP3\nDuration                         : 1h 33mn\nBit rate mode                    : Constant\nBit rate                         : 128 Kbps\nChannel(s)                       : 2 channels\nSampling rate                    : 44.1 KHz\nCompression mode                 : Lossy\nDelay relative to video          : 40ms\nStream size                      : 85.3 MiB (10%)\nAlignment                        : Aligned on interleaves\nInterleave, duration             : 26 ms (0.65 video frame)\nInterleave, preload duration     : 522 ms\nWriting library                  : LAME3.98\n\n","torrent":{"xt":"urn:btih:47ba1bf4f2d8a79c38e2c39114af39e7258ec56e","amp;dn":"Pornochic+%23+22+-+Femmes+Fatales","amp;tr":["udp%3A%2F%2Ftracker.openbittorrent.com%3A80","udp%3A%2F%2Fopen.demonii.com%3A1337","udp%3A%2F%2Ftracker.coppersurfer.tk%3A6969","udp%3A%2F%2Fexodus.desync.com%3A6969"],"infoHash":"47ba1bf4f2d8a79c38e2c39114af39e7258ec56e","infoHashBuffer":{"type":"Buffer","data":[71,186,27,244,242,216,167,156,56,226,195,145,20,175,57,231,37,142,197,110]},"announce":[],"urlList":[]}}